[center][img]http://z1.zod.fr/z/gullivers-travels-2010-poster-6kjb.jpg[/img][/center]

[center][img]http://leetleech.org/images/48874973695367351744.png[/img][/center]

[center]Format                           : AVI
Format/Info                      : Audio Video Interleave
File size                        : 954 MiB
Duration                         : 1h 20mn
Overall bit rate                 : 1 667 Kbps
Writing library                  : VirtualDub build 32839/release

Video
ID                               : 0
Format                           : MPEG-4 Visual
Format profile                   : Advanced Simple@L5
Format settings, BVOP            : Yes
Format settings, QPel            : No
Format settings, GMC             : No warppoints
Format settings, Matrix          : Custom
Codec ID                         : XVID
Codec ID/Hint                    : XviD
Duration                         : 1h 20mn
Bit rate                         : 1 530 Kbps
Width                            : 672 pixels
Height                           : 358 pixels
Display aspect ratio             : 1.877
Frame rate                       : 23.976 fps
Color space                      : YUV
Chroma subsampling               : 4:2:0
Bit depth                        : 8 bits
Scan type                        : Progressive
Bits/(Pixel*Frame)               : 0.265
Stream size                      : 876 MiB (92%)
Writing library                  : XviD 1.2.1 (UTC 2008-12-04)

Audio
ID                               : 1
Format                           : MPEG Audio
Format version                   : Version 1
Format profile                   : Layer 3
Codec ID                         : 55
Codec ID/Hint                    : MP3
Duration                         : 1h 20mn
Bit rate mode                    : Constant
Bit rate                         : 128 Kbps
Channel(s)                       : 2 channels
Sampling rate                    : 48.0 KHz
Stream size                      : 73.3 MiB (8%)
Alignment                        : Split accross interleaves
Interleave, duration             : 42 ms (1.00 video frame)
Interleave, preload duration     : 500 ms
[/center]

[center][url]http://www.imdb.com/title/tt1320261/[/url][/center]

[center]Travel writer Lemuel Gulliver takes an assignment in Bermuda, but ends up on the island of Liliput, where he towers over its tiny citizens.
Director:
Rob Letterman
Writers:
Joe Stillman (screenplay), Nicholas Stoller (screenplay), and 1 more credit »
Stars:
Jack Black, Emily Blunt and Jason Segel [/center]

[center][img]http://img208.imageshack.us/img208/5691/vlcsnap2010123116h39m22.png[/img][/center]
[center][img]http://img843.imageshack.us/img843/4260/vlcsnap2010123116h38m48.png[/img][/center]
[center][img]http://img218.imageshack.us/img218/7577/vlcsnap2010123116h40m57.png[/img][/center]

[center]Video source - VIDEO:Gullivers Travels 2010.avi (And imagine - Thanks guys .
             Audio source - Lu Thanks again mate bringing the much needed audio.
             This is far from the  greatest cam release if you dont mind cams and you want to see this pretty bad then you 'll watch this and be ok.Theres no point complaining about quality its not the best you've been told that.Ran a few filters through it done what i could its up to you if you want to wait ....Enjoy !


Spot the file name mistake ..... keep off the drink i should  ::) [/center]


[center]Greetz to Imagine ,Flawl3ss ,Santi ,Vision ,Kingdom,BDK,DiGiTALiNK,LEGION,Classified,THC,WBZ,Rx ,Feel Free and to all who share[/center]


[center][img]http://signatures.mylivesignature.com/54488/364/63C91F8D3F952BFA8B83650965539EC2.png[/img][/center]
